<?xml version="1.0" encoding="utf-8"?>
<!-- Svg Vector Icons : http://www.onlinewebfonts.com/icon -->
<!DOCTYPE svg PUBLIC "-//W3C//DTD SVG 1.1//EN" "http://www.w3.org/Graphics/SVG/1.1/DTD/svg11.dtd">
<svg version="1.1" xmlns="http://www.w3.org/2000/svg" xmlns:xlink="http://www.w3.org/1999/xlink" x="0px" y="0px" viewBox="0 0 1000 1000" enable-background="new 0 0 1000 1000" xml:space="preserve">
<metadata> Svg Vector Icons : http://www.onlinewebfonts.com/icon </metadata>
<g><g transform="translate(0.000000,512.000000) scale(0.100000,-0.100000)"><path d="M4622.6,5016.9c-693.8-70.9-1213.2-214.7-1782.4-494.5c-500.2-245.3-856.7-498.3-1263-891.2c-417.8-408.2-722.6-828-981.3-1353.1c-241.5-494.5-389.1-979.4-471.5-1552.4c-32.6-226.2-32.6-981.3,0-1207.5c136.1-950.6,504.1-1803.5,1082.9-2506.9c1353.1-1642.5,3595.5-2229,5571.5-1458.5C8043.7-3952.7,9071-2923.5,9569.3-1650.9C9772.5-1127.7,9876-625.6,9897-41c46,1326.3-446.6,2604.6-1374.2,3562.9c-421.7,435.1-833.7,736-1370.4,998.5c-483,237.7-927.6,377.6-1466.2,460C5492.8,5009.2,4789.4,5034.1,4622.6,5016.9z M5638.4,4675.7c994.7-147.6,1908.9-605.6,2608.4-1307.1C8971.3,2640.3,9416,1733.8,9559.7,696.9c15.4-101.6,26.8-354.6,26.8-575c0-414-21.1-613.3-97.7-977.5c-107.3-506-368-1121.2-655.5-1552.4c-749.4-1123.1-1910.8-1847.6-3262-2033.5c-235.7-34.5-914.2-34.5-1150,0c-724.5,99.6-1389.5,348.8-1974.1,739.8C1343.4-2963.8,618.9-1796.6,431.1-453.1c-32.6,237.7-32.6,933.4,1.9,1159.5c220.4,1508.3,1075.2,2750.3,2378.5,3459.4c557.7,302.8,1082.9,458.1,1839.9,544.3C4791.3,4725.5,5454.4,4702.5,5638.4,4675.7z"/><path d="M4145.4,3328.3c-3.8-19.2-57.5-385.2-118.8-814.6l-109.2-782h-448.5h-446.6v-498.3V735.2H3396c210.8,0,373.7-7.7,373.7-17.2c0-21.1-90.1-653.6-105.4-743.6l-11.5-63.2h-431.2h-429.3l3.8-502.1l5.7-504.1l350.7-5.8c191.7-1.9,348.8-11.5,348.8-19.2c0-19.2-208.9-1516-220.4-1579.3l-7.7-53.7h496.4c274.1,0,498.3,5.7,498.3,15.3c0,19.2,207,1516,220.4,1590.8l11.5,61.3h266.4c266.4,0,268.3,0,268.3-42.2c0-24.9-47.9-383.3-105.4-797.3c-57.5-414-105.4-768.6-105.4-789.6c0-36.4,13.4-38.3,498.3-38.3c438.9,0,498.3,3.8,498.3,30.7c0,15.3,47.9,383.3,105.4,816.5c57.5,433.1,105.4,793.5,105.4,803.1c0,9.6,199.3,17.2,440.8,17.2h440.8l1.9,134.2c0,74.8,0,233.8,0,354.6c0,120.7,0,285.6,0,364.2l-1.9,143.8h-354.6h-354.6v44.1c0,23,21.1,201.3,47.9,394.8s47.9,358.4,47.9,368s191.7,17.2,431.2,17.2h431.2v498.3v498.3h-356.5h-356.5l11.5,63.2c5.7,32.6,53.7,381.4,107.3,770.5c51.8,391,97.7,728.3,103.5,753.2l5.7,42.2h-490.7h-490.6l-115-808.8l-115-810.7l-283.7-5.7l-283.7-5.8l11.5,44.1c3.8,24.9,51.8,368,105.4,762.8c53.7,394.8,101.6,741.7,107.3,772.4l11.5,51.8h-490.6C4195.2,3360.9,4155,3359,4145.4,3328.3z M4766.4,3012.1c0-24.9-47.9-387.1-105.4-808.8c-57.5-419.7-105.4-766.6-105.4-770.5s264.5-5.8,588.4-3.8l590.3,5.7l115,810.7l115,808.8h176.3c130.3,0,178.2-5.7,178.2-23c0-13.4-47.9-368-105.4-789.6c-57.5-419.7-105.4-776.2-105.4-789.6c0-21.1,67.1-26.8,373.7-26.8h373.7v-191.7v-191.7h-412.1c-226.2,0-412.1-7.7-412.1-15.3c0-28.8-172.5-1314.8-184-1368.5l-11.5-53.7h385.2h385.2v-191.7v-191.7h-419.7h-417.8l-11.5-70.9c-5.7-40.2-55.6-415.9-111.2-833.7l-101.6-762.8h-187.8c-103.5,0-187.8,5.8-187.8,11.5c0,17.2,208.9,1521.7,220.4,1594.6l11.5,61.3h-582.7h-584.6l-11.5-61.3c-5.8-34.5-53.7-377.5-107.3-762.8c-51.8-385.2-101.6-732.1-107.3-770.5l-11.5-72.8h-180.1c-174.4,0-180.2,1.9-178.2,44.1c0,23,49.8,391,109.2,818.4L3856-807.6l-373.7,9.6l-373.7,9.6l-5.7,197.4l-5.7,195.5h414c226.2,0,412.1,1.9,412.1,5.8c1.9,1.9,47.9,323.9,101.6,713l101.6,709.1l-398.7,5.7l-398.6,3.8v191.7v191.7h427.4h427.4l111.2,791.5c59.4,433.1,113.1,801.1,116.9,814.5c5.7,15.3,59.4,23,182.1,23C4760.6,3054.3,4766.4,3052.4,4766.4,3012.1z"/><path d="M4390.7,323.2l-93.9-718.7h588.4c325.8,0,590.3,5.8,590.3,11.5c0,24.9,174.4,1324.4,184,1374.2l11.5,51.7h-592.2h-592.2L4390.7,323.2z M5262.8,348.1c-30.7-214.6-53.7-400.6-55.6-412.1c0-19.2-69-24.9-279.8-24.9h-281.7l11.5,82.4c5.8,44.1,30.7,230,53.7,412.1l44.1,329.6h279.8h279.8L5262.8,348.1z"/></g></g>
</svg>